<svg xmlns="http://www.w3.org/2000/svg" viewBox="0 0 32 32" fill="none">
  <rect width="32" height="32" rx="8" fill="#4f46e5"/>
  <path d="M10 8h12a1 1 0 0 1 1 1v14a1 1 0 0 1-1 1H10a1 1 0 0 1-1-1V9a1 1 0 0 1 1-1z" fill="white" fill-opacity="0.95"/>
  <path d="M12 12h8M12 16h8M12 20h5" stroke="#4f46e5" stroke-width="1.5" stroke-linecap="round"/>
  <circle cx="22" cy="10" r="4" fill="#818cf8"/>
  <path d="M21 9.5l.75 1.25L23 9.5l-.75 1.25.75 1.25-1.25-.75-1.25.75.75-1.25-.75-1.25 1.25.75z" fill="white"/>
</svg>
